<?xml version="1.0" standalone="no"?>
<!DOCTYPE svg PUBLIC "-//W3C//DTD SVG 20010904//EN"
 "http://www.w3.org/TR/2001/REC-SVG-20010904/DTD/svg10.dtd">
<svg version="1.0" xmlns="http://www.w3.org/2000/svg"
 width="512.000000pt" height="512.000000pt" viewBox="0 0 512.000000 512.000000"
 preserveAspectRatio="xMidYMid meet">

<g transform="translate(0.000000,512.000000) scale(0.100000,-0.100000)"
fill="#000000" stroke="none">
<path d="M142 4494 c-29 -14 -65 -42 -82 -62 -64 -77 -61 -3 -58 -1378 3
-1197 4 -1250 22 -1284 10 -19 29 -47 43 -61 l24 -26 -35 -51 c-135 -202 -1
-490 242 -519 l49 -5 12 -52 c15 -68 59 -159 107 -222 175 -230 492 -301 747
-167 160 85 271 232 311 416 l6 27 817 -2 816 -3 13 -55 c53 -211 226 -381
444 -436 135 -34 314 -6 446 71 119 69 238 233 266 368 l12 56 295 3 c261 3
300 5 332 21 47 24 95 71 122 121 22 40 22 49 25 563 2 423 0 534 -12 590 -18
87 -547 1375 -585 1423 -15 19 -54 49 -86 65 l-60 30 -522 3 -521 3 -4 202
c-4 223 -10 247 -79 316 -71 72 70 66 -1574 69 l-1481 2 -52 -26z m2992 -175
l26 -31 0 -1249 0 -1249 -1471 2 -1471 3 -24 28 -24 28 0 1215 c0 1254 0 1241
39 1271 12 10 340 12 1458 13 l1441 0 26 -31z m536 -1227 c0 -744 -2 -718 76
-796 77 -77 66 -76 671 -76 l533 0 0 -85 0 -85 -56 0 c-48 0 -59 -4 -85 -29
-37 -38 -39 -82 -4 -116 20 -21 34 -25 85 -25 l60 0 0 -84 0 -84 -62 -4 c-51
-4 -65 -9 -85 -32 -30 -36 -30 -80 2 -111 20 -21 34 -25 85 -25 l60 0 0 -101
c0 -98 -1 -101 -29 -130 l-29 -29 -274 0 -274 0 -11 55 c-38 181 -197 358
-384 425 -60 22 -81 24 -341 28 l-278 4 0 979 0 979 170 0 170 0 0 -658z m695
652 c8 -4 23 -20 32 -37 29 -57 533 -1288 533 -1302 0 -13 -69 -15 -510 -15
-352 0 -517 3 -533 11 -14 6 -30 22 -36 36 -8 17 -11 217 -11 668 l0 645 254
0 c140 0 262 -3 271 -6z m-3884 -2170 c-50 -58 -105 -165 -122 -239 -9 -43
-16 -55 -31 -55 -60 0 -142 72 -154 135 -14 76 23 151 91 185 33 16 60 20 148
20 l109 0 -41 -46z m564 32 c192 -51 316 -213 316 -411 0 -227 -167 -407 -390
-422 -136 -10 -245 32 -336 128 -160 168 -162 417 -5 583 53 56 141 110 206
125 58 14 153 12 209 -3z m2242 -43 c-64 -83 -117 -200 -117 -260 l0 -23 -820
0 -820 0 -5 28 c-22 100 -64 187 -127 265 l-39 47 986 0 986 0 -44 -57z m595
37 c274 -84 385 -419 218 -653 -169 -235 -527 -234 -693 3 -133 191 -86 460
103 593 107 74 247 96 372 57z"/>
<path d="M366 4149 c-34 -40 -33 -74 3 -110 l29 -29 156 0 c146 0 156 1 180
23 15 12 29 36 32 54 5 27 1 37 -24 63 l-30 30 -160 0 -160 0 -26 -31z"/>
<path d="M965 4155 c-42 -41 -31 -105 22 -133 16 -9 271 -12 982 -12 l960 0
27 24 c21 18 28 32 28 61 0 29 -7 43 -28 61 l-27 24 -970 0 -970 0 -24 -25z"/>
<path d="M870 1441 c-85 -28 -151 -93 -174 -172 -20 -66 -20 -82 0 -148 33
-111 144 -188 259 -179 261 21 326 363 92 485 -35 18 -140 26 -177 14z m125
-186 c34 -33 34 -87 0 -120 -51 -52 -139 -14 -139 60 0 74 88 112 139 60z"/>
<path d="M3662 1433 c-57 -20 -126 -91 -146 -150 -88 -259 226 -460 418 -267
193 192 -13 509 -272 417z m149 -182 c44 -45 33 -108 -22 -131 -52 -22 -119
16 -119 66 0 84 84 122 141 65z"/>
</g>
</svg>
