<?xml version="1.0" standalone="no"?>
<!DOCTYPE svg PUBLIC "-//W3C//DTD SVG 20010904//EN"
 "http://www.w3.org/TR/2001/REC-SVG-20010904/DTD/svg10.dtd">
<svg version="1.0" xmlns="http://www.w3.org/2000/svg"
 width="512.000000pt" height="512.000000pt" viewBox="0 0 512.000000 512.000000"
 preserveAspectRatio="xMidYMid meet">

<g transform="translate(0.000000,512.000000) scale(0.100000,-0.100000)"
fill="#000000" stroke="none">
<path d="M3356 4289 c-30 -36 -33 -69 -12 -176 l14 -73 -192 0 c-162 0 -196
-3 -226 -18 -65 -32 -76 -104 -24 -153 25 -24 29 -24 250 -27 221 -3 224 -3
229 -25 3 -12 39 -218 81 -457 99 -566 101 -663 14 -889 -100 -258 -339 -469
-615 -542 -113 -30 -324 -32 -409 -5 -158 52 -219 146 -195 300 26 159 151
279 318 305 35 6 74 17 87 26 42 27 45 66 42 478 l-3 389 -33 29 -32 29 -813
0 c-754 0 -814 -2 -833 -18 -40 -32 -44 -53 -44 -261 l0 -200 -37 -6 c-216
-35 -373 -102 -525 -224 -188 -149 -316 -356 -369 -596 -25 -116 -39 -480 -20
-538 18 -54 53 -77 116 -77 l52 0 7 -80 c27 -309 217 -553 506 -650 94 -32
282 -39 382 -15 232 57 420 218 509 435 l26 65 976 3 976 2 21 -57 c82 -220
280 -390 518 -448 108 -26 279 -18 387 19 254 87 427 288 489 568 5 24 10 27
35 22 22 -5 35 0 60 23 40 36 50 90 39 203 -35 366 -306 668 -668 746 -79 17
-80 18 -90 53 -38 143 -240 1024 -236 1028 3 3 25 0 50 -6 75 -19 130 -14 159
13 14 13 29 35 32 48 3 12 5 184 3 381 l-3 359 -28 24 c-23 19 -39 24 -86 24
-88 0 -207 -48 -261 -105 -13 -14 -27 -25 -31 -25 -5 0 -13 19 -19 41 -6 23
-22 52 -35 65 -24 24 -24 24 -269 24 l-244 0 -26 -31z m601 -1019 c227 -954
232 -985 199 -1150 -58 -286 -233 -515 -443 -580 -63 -19 -92 -20 -1064 -20
l-999 0 0 40 c0 69 -44 136 -112 171 -35 18 -68 19 -688 19 l-650 0 0 138 c0
161 11 237 49 349 39 113 100 212 189 305 118 123 240 195 412 242 72 19 107
20 873 23 l798 4 -3 -47 c-3 -47 -3 -47 -53 -63 -95 -31 -150 -66 -226 -141
-114 -112 -169 -242 -169 -393 1 -232 150 -393 412 -448 109 -22 234 -19 388
12 526 103 905 591 877 1128 -4 79 -38 298 -107 689 -55 315 -100 575 -100
578 0 3 48 3 107 2 l107 -3 203 -855z m203 619 l0 -211 -27 17 c-96 61 -132
193 -83 298 20 42 82 107 102 107 5 0 8 -95 8 -211z m-1640 -744 l0 -145 -682
2 -683 3 -3 129 c-1 72 0 136 2 143 4 10 136 13 686 13 l680 0 0 -145z m1933
-1129 c73 -30 127 -67 187 -128 47 -47 107 -144 96 -155 -3 -3 -43 1 -88 10
-108 22 -246 37 -330 37 -38 0 -68 2 -68 5 0 3 13 32 29 64 17 32 39 88 51
124 25 78 32 80 123 43z m-63 -436 c137 -11 193 -20 318 -52 l83 -21 -6 -41
c-11 -72 -36 -150 -62 -196 -177 -310 -588 -372 -837 -125 -53 52 -126 164
-126 193 0 5 21 17 48 27 96 36 216 117 265 179 25 32 32 35 90 39 34 2 71 4
82 5 11 1 76 -3 145 -8z m-2950 -73 c0 -225 -183 -448 -412 -502 -261 -61
-534 93 -623 352 -9 26 -19 83 -22 126 l-6 77 532 0 531 0 0 -53z"/>
<path d="M965 2655 c-5 -2 -37 -6 -69 -10 -50 -6 -66 -13 -93 -40 -37 -37 -43
-76 -17 -114 17 -24 79 -55 93 -47 4 3 45 10 91 15 68 9 89 16 110 36 34 35
34 95 0 130 -23 22 -90 40 -115 30z"/>
<path d="M500 2413 c-79 -92 -150 -280 -150 -398 0 -97 90 -148 159 -90 24 21
31 35 36 83 12 114 38 184 104 282 59 87 28 170 -63 170 -41 0 -48 -4 -86 -47z"/>
</g>
</svg>
