<svg width="100" height="126" viewBox="0 0 100 126" fill="none" xmlns="http://www.w3.org/2000/svg">
<path d="M42.1875 106.75C46.1458 106.75 49.4792 105.396 52.1875 102.688C54.8958 99.9792 56.25 96.6458 56.25 92.6875V69.25H75V56.75H50V80.9688C48.8542 80.1354 47.6292 79.5354 46.325 79.1688C45.0208 78.8021 43.6417 78.6208 42.1875 78.625C38.2292 78.625 34.8958 79.9792 32.1875 82.6875C29.4792 85.3958 28.125 88.7292 28.125 92.6875C28.125 96.6458 29.4792 99.9792 32.1875 102.688C34.8958 105.396 38.2292 106.75 42.1875 106.75ZM12.5 125.5C9.06251 125.5 6.11876 124.275 3.66876 121.825C1.21876 119.375 -0.00415606 116.433 1.06112e-05 113V13C1.06112e-05 9.56251 1.22501 6.61876 3.67501 4.16876C6.12501 1.71876 9.06668 0.495844 12.5 0.500011H62.5L100 38V113C100 116.438 98.775 119.381 96.325 121.831C93.875 124.281 90.9333 125.504 87.5 125.5H12.5ZM56.25 44.25H87.5L56.25 13V44.25Z" fill="#FFC34B"/>
</svg>
